<?xml version="1.0" encoding="utf-8"?>
<!-- Generator: Adobe Illustrator 24.0.0, SVG Export Plug-In . SVG Version: 6.00 Build 0)  -->
<svg version="1.1" id="图层_1" xmlns="http://www.w3.org/2000/svg" xmlns:xlink="http://www.w3.org/1999/xlink" x="0px" y="0px"
	 viewBox="0 0 61 625" style="enable-background:new 0 0 61 625;" xml:space="preserve">
<style type="text/css">
	.st0{fill:url(#SVGID_1_);}
	.st1{fill:#ED0000;}
</style>
<g>
	
		<radialGradient id="SVGID_1_" cx="-45625.9219" cy="420.4553" r="143.4101" gradientTransform="matrix(4.347826e-03 0 0 1.362 229.4978 -261.1866)" gradientUnits="userSpaceOnUse">
		<stop  offset="0" style="stop-color:#FFFFFF"/>
		<stop  offset="1" style="stop-color:#000000"/>
	</radialGradient>
	<line class="st0" x1="31" y1="38" x2="31.2" y2="585"/>
	<path class="st1" d="M31.6,38l0.7,34.2l0.6,34.2l1.2,68.4l1,68.4l0.8,68.4l0.5,34.2l0.6,34.2c0.4,22.8,0.4,45.6,0.1,68.4l-0.7,34.2
		c-0.4,11.4-0.6,22.8-1.1,34.2c-0.8,22.8-1.9,45.6-3.6,68.4l-1.2,0c-1.7-22.8-2.8-45.6-3.7-68.4c-0.5-11.4-0.7-22.8-1.1-34.2
		l-0.7-34.2c-0.4-22.8-0.3-45.6,0-68.4l0.6-34.2l0.5-34.2l0.8-68.4l1-68.4l1.1-68.4l0.6-34.2L30.4,38L31.6,38z"/>
</g>
</svg>
